<svg width="717" height="94" viewBox="0 0 717 94" fill="none" xmlns="http://www.w3.org/2000/svg">
<path d="M64.616 22.728C63.7627 22.728 62.7813 22.728 61.672 22.728C60.5627 22.6427 59.2827 22.5573 57.832 22.472C55.3573 22.3867 53.096 22.344 51.048 22.344C49 22.2587 47.6347 22.1307 46.952 21.96V31.688C45.7573 32.6267 44.904 34.504 44.392 37.32C43.7093 45.768 43.2827 52.552 43.112 57.672C42.9413 62.7067 42.8987 66.632 42.984 69.448C43.0693 71.1547 43.1547 72.6053 43.24 73.8C43.3253 74.9093 43.4533 75.8053 43.624 76.488L45.032 83.272L44.392 84.296L28.904 87.752H28.52C28.3493 87.752 28.136 87.7947 27.88 87.88C27.7093 87.88 27.5387 87.88 27.368 87.88L23.144 84.936C23.144 84.8507 23.1867 84.808 23.272 84.808C23.3573 84.7227 23.4427 84.5947 23.528 84.424C23.6133 84.168 23.6987 83.784 23.784 83.272C23.8693 82.6747 23.912 81.864 23.912 80.84C23.912 79.9867 23.912 79.3893 23.912 79.048C23.9973 78.7067 23.9547 78.152 23.784 77.384C23.6133 76.36 23.6133 74.056 23.784 70.472C23.8693 66.888 23.272 65.096 21.992 65.096C22.1627 64.1573 22.248 63.048 22.248 61.768C22.3333 60.488 22.4187 59.2933 22.504 58.184C22.5893 57.5013 22.632 56.8613 22.632 56.264C22.632 55.5813 22.632 54.8987 22.632 54.216C22.7173 54.1307 22.76 54.0453 22.76 53.96C22.8453 53.8747 22.9307 53.7893 23.016 53.704L23.144 53.576C23.5707 52.8933 23.784 52.3813 23.784 52.04C23.784 51.6133 23.9547 50.6747 24.296 49.224V43.72C25.9173 43.976 26.2587 42.6107 25.32 39.624C24.552 36.3813 24.424 34.76 24.936 34.76C25.192 33.6507 25.448 32.3707 25.704 30.92C25.8747 29.7253 26.0453 28.4453 26.216 27.08C26.3867 25.6293 26.5573 24.1787 26.728 22.728L26.216 22.344C25.6187 22.856 24.8933 23.0267 24.04 22.856C23.272 22.6853 22.5467 22.5573 21.864 22.472C19.9013 22.728 18.2373 22.9413 16.872 23.112C15.5067 23.2827 14.3973 23.5813 13.544 24.008C13.032 24.1787 12.5627 24.3067 12.136 24.392C11.7093 24.4773 11.496 25.0747 11.496 26.184L4.2 27.72L1.896 26.056C1.55467 25.2027 1.256 24.392 1 23.624C0.744 22.7707 0.573333 21.7467 0.488 20.552L2.024 16.84C3.21867 16.6693 4.15733 16.584 4.84 16.584C5.608 16.584 6.16267 16.6267 6.504 16.712C6.93067 16.712 7.22933 16.7547 7.4 16.84C7.57067 16.9253 7.74133 16.968 7.912 16.968C8.85067 16.5413 9.832 16.1573 10.856 15.816C11.88 15.3893 13.0747 15.0053 14.44 14.664C15.8907 14.3227 17.5547 14.024 19.432 13.768C21.3947 13.4267 23.7413 13.0853 26.472 12.744L38.12 12.232L39.4 13.256C39.8267 13.512 40.296 13.768 40.808 14.024C41.32 14.1947 41.832 14.28 42.344 14.28C42.9413 14.3653 43.496 14.152 44.008 13.64C44.1787 13.4693 44.3493 13.2133 44.52 12.872C45.2027 12.7013 46.312 12.7013 47.848 12.872C49.4693 12.9573 51.9013 13.256 55.144 13.768C60.776 14.7067 64.488 15.2187 66.28 15.304L67.048 16.584V20.808L64.616 22.728ZM81.42 10.312C81.5907 9.62933 81.676 8.98933 81.676 8.392C81.7613 7.70933 81.8467 7.02666 81.932 6.34399C81.932 5.74666 81.932 5.23466 81.932 4.808C82.0173 4.38133 82.06 3.99733 82.06 3.656L82.7 2.24799C82.956 2.16266 83.2973 2.12 83.724 2.12C84.1507 2.12 84.6627 2.07733 85.26 1.992C87.052 1.90666 88.204 1.69333 88.716 1.352C88.716 1.26667 88.9293 1.096 89.356 0.839996C89.612 0.583995 89.8253 0.413328 89.996 0.327995C90.0813 0.327995 90.38 0.370661 90.892 0.455994C91.404 0.541326 92.0867 0.711993 92.94 0.967995C94.3907 1.30933 95.4147 1.48 96.012 1.48C96.78 1.48 97.2067 1.43733 97.292 1.352C97.3773 1.26667 97.6333 1.26667 98.06 1.352L99.212 3.52799L100.364 10.056L97.676 14.536C97.5907 14.6213 97.5053 14.7067 97.42 14.792C97.42 14.8773 97.3347 14.9627 97.164 15.048C96.7373 15.304 96.2253 15.688 95.628 16.2L95.244 16.584L91.404 16.968C90.892 16.7973 90.2947 16.6267 89.612 16.456C88.9293 16.2 88.1187 15.9013 87.18 15.56C86.2413 15.2187 85.4307 14.92 84.748 14.664C84.0653 14.3227 83.468 14.0667 82.956 13.896L82.316 13.256L81.42 10.312ZM97.292 32.328L96.78 36.936L97.292 38.856L96.524 40.904L96.908 43.848L96.268 46.28L96.652 47.048L96.14 52.808L95.628 64.968C95.628 65.5653 95.5427 66.3333 95.372 67.272C95.2013 68.1253 95.0733 69.064 94.988 70.088C94.9027 71.0267 94.9027 72.008 94.988 73.032C95.0733 73.9707 95.3293 74.7813 95.756 75.464C95.6707 76.744 95.5427 78.2373 95.372 79.944C95.2013 81.6507 94.9027 83.6133 94.476 85.832C93.7933 86.7707 93.068 87.624 92.3 88.392C91.6173 89.0747 90.2947 89.4587 88.332 89.544C87.2227 89.6293 86.1133 89.7147 85.004 89.8C83.98 89.8853 82.9987 90.0133 82.06 90.184C81.548 90.2693 81.036 90.3547 80.524 90.44C80.012 90.5253 79.4573 90.6533 78.86 90.824L75.66 86.728C75.7453 86.3013 75.8733 85.1493 76.044 83.272C76.3 81.3093 76.5133 79.0053 76.684 76.36C76.8547 73.7147 76.94 70.8987 76.94 67.912C77.0253 64.9253 76.94 62.152 76.684 59.592L77.452 57.16L78.604 51.528L78.988 47.048L79.756 45.512L79.884 44.36L80.652 40.904L81.292 33.864L92.812 29.384L97.292 32.328ZM169.556 35.656V40.392L168.788 41.16L157.14 38.728L146.9 43.464L144.084 49.992C141.524 55.112 139.647 59.7627 138.452 63.944C137.257 68.04 137.385 71.5387 138.836 74.44L142.548 80.84L155.988 78.536L161.62 76.616H172.116L173.396 81.096L159.06 85.192L138.836 89.416L132.692 85.448H122.196L118.228 81.096C117.204 76.232 117.332 71.3253 118.612 66.376C119.892 61.3413 121.812 56.2213 124.372 51.016L138.708 40.648L142.292 34.504L146.388 32.968L149.204 30.664L168.66 33.096L169.556 35.656ZM219.204 60.872C218.18 61.0427 217.284 61.384 216.516 61.896C215.748 62.408 215.065 62.9627 214.468 63.56C213.956 64.072 213.487 64.584 213.06 65.096C212.633 65.5227 212.249 65.7787 211.908 65.864C211.481 65.608 210.927 65.48 210.244 65.48C209.561 65.3947 208.879 65.5227 208.196 65.864C207.599 66.12 207.129 66.632 206.788 67.4C206.532 68.0827 206.617 69.064 207.044 70.344L207.556 79.432L207.044 84.168V86.6L204.612 90.056L200.388 91.08H191.94C191.001 91.2507 190.233 91.1227 189.636 90.696C189.124 90.184 188.868 88.9467 188.868 86.984V86.728L190.916 79.048L191.3 70.344L192.196 53.96L193.732 42.952C193.647 42.5253 193.561 41.7147 193.476 40.52C193.391 39.3253 193.263 37.832 193.092 36.04C193.007 34.1627 192.921 32.6267 192.836 31.432C192.836 30.2373 192.836 29.2987 192.836 28.616C192.836 28.7867 193.135 28.5733 193.732 27.976C194.329 27.2933 194.841 26.4827 195.268 25.544C195.695 24.52 195.865 23.4107 195.78 22.216C195.695 21.0213 194.969 19.912 193.604 18.888L194.884 8.26399C195.481 7.92266 195.524 6.89866 195.012 5.19199L197.572 2.632L199.236 2.376C199.919 2.54666 200.601 2.67466 201.284 2.75999C202.052 2.75999 202.905 2.84533 203.844 3.016C204.612 3.18666 205.295 3.31466 205.892 3.39999C206.575 3.39999 207.172 3.52799 207.684 3.784L210.244 5.19199V7.62399C210.415 8.05066 210.585 8.73333 210.756 9.672C210.927 10.5253 211.055 11.592 211.14 12.872C211.14 13.4693 211.097 14.152 211.012 14.92C210.927 15.688 210.841 16.4133 210.756 17.096C210.756 17.7787 210.713 18.376 210.628 18.888C210.543 19.4 210.5 19.6987 210.5 19.784C210.5 19.8693 210.457 20.0827 210.372 20.424C210.372 20.7653 210.329 21.1067 210.244 21.448C210.159 21.7893 210.073 22.088 209.988 22.344C209.903 22.6 209.817 22.6853 209.732 22.6C209.647 22.6 209.519 22.856 209.348 23.368C209.263 23.88 209.135 24.52 208.964 25.288C208.879 25.9707 208.793 26.696 208.708 27.464C208.623 28.232 208.623 28.8293 208.708 29.256C208.793 29.6827 208.879 30.3653 208.964 31.304C209.049 32.1573 209.135 33.352 209.22 34.888C209.22 35.656 209.22 36.3387 209.22 36.936C209.305 37.5333 209.348 38.0453 209.348 38.472C209.348 38.984 209.391 39.368 209.476 39.624L208.708 48.968L206.404 50.888C205.209 53.2773 204.655 54.9413 204.74 55.88C204.911 56.8187 205.423 57.5867 206.276 58.184C207.812 57.928 208.879 57.7147 209.476 57.544C210.073 57.3733 210.543 57.0747 210.884 56.648C211.225 56.2213 211.524 55.6667 211.78 54.984C212.121 54.3013 212.804 53.32 213.828 52.04C213.828 52.2107 214.596 51.8267 216.132 50.888C217.497 50.0347 218.137 49.0107 218.052 47.816C219.161 47.304 219.972 46.8773 220.484 46.536C220.996 46.1947 221.593 45.8533 222.276 45.512C223.897 44.3173 224.964 43.1653 225.476 42.056C226.073 40.9467 226.543 40.4347 226.884 40.52C227.14 40.52 227.311 40.5627 227.396 40.648C227.567 40.7333 227.823 40.8613 228.164 41.032C228.591 40.776 229.273 40.3493 230.212 39.752C231.236 39.0693 232.431 38.1307 233.796 36.936C234.649 36.2533 235.417 35.6133 236.1 35.016C236.868 34.4187 237.593 33.8213 238.276 33.224L241.476 33.608L243.652 38.216L242.244 39.112C241.732 39.624 241.22 40.264 240.708 41.032C240.196 41.8 239.684 42.568 239.172 43.336C238.745 44.0187 238.276 44.6587 237.764 45.256C237.252 45.768 236.74 46.0667 236.228 46.152C234.095 47.8587 231.705 49.4373 229.06 50.888C226.5 52.3387 223.983 53.9173 221.508 55.624C221.081 55.88 220.697 56.1787 220.356 56.52C220.015 56.776 219.673 57.032 219.332 57.288C219.161 57.4587 219.076 57.7573 219.076 58.184C219.161 58.5253 219.247 58.9093 219.332 59.336C219.417 59.6773 219.46 60.0187 219.46 60.36C219.46 60.7013 219.375 60.872 219.204 60.872ZM249.156 88.776L240.196 93.256L237.508 92.616L234.436 88.52C234.095 88.0933 233.796 87.6667 233.54 87.24C233.284 86.728 232.943 86.1733 232.516 85.576C231.577 84.04 230.639 82.76 229.7 81.736C228.847 80.6267 228.249 79.7307 227.908 79.048C227.823 78.8773 227.652 78.5787 227.396 78.152C227.14 77.7253 226.671 77.3413 225.988 77L225.476 70.216C225.817 70.0453 225.519 69.6187 224.58 68.936C223.727 68.168 222.831 67.2293 221.892 66.12C220.441 63.7307 220.057 62.0667 220.74 61.128C221.935 61.2987 223.257 61.4267 224.708 61.512C226.244 61.5973 227.908 61.5547 229.7 61.384C230.297 61.2987 230.809 61.256 231.236 61.256C231.663 61.256 232.089 61.256 232.516 61.256L234.308 63.048C234.308 63.1333 234.265 63.176 234.18 63.176C234.18 63.176 234.18 63.2187 234.18 63.304C234.351 63.56 234.607 63.9867 234.948 64.584C235.375 65.1813 235.929 66.0347 236.612 67.144C237.636 67.9973 238.361 68.7653 238.788 69.448C239.215 70.1307 239.513 70.7707 239.684 71.368C239.855 71.9653 239.983 72.5627 240.068 73.16C240.153 73.7573 240.409 74.44 240.836 75.208C241.092 75.464 241.476 75.8907 241.988 76.488C242.5 77 243.14 77.64 243.908 78.408C244.676 79.176 245.231 79.7733 245.572 80.2C245.913 80.6267 246.127 80.8827 246.212 80.968C246.383 81.1387 246.383 81.3093 246.212 81.48C246.127 81.6507 246.127 81.736 246.212 81.736L249.412 86.472L249.156 88.776ZM317.491 22.728C316.638 22.728 315.656 22.728 314.547 22.728C313.438 22.6427 312.158 22.5573 310.707 22.472C308.232 22.3867 305.971 22.344 303.923 22.344C301.875 22.2587 300.51 22.1307 299.827 21.96V31.688C298.632 32.6267 297.779 34.504 297.267 37.32C296.584 45.768 296.158 52.552 295.987 57.672C295.816 62.7067 295.774 66.632 295.859 69.448C295.944 71.1547 296.03 72.6053 296.115 73.8C296.2 74.9093 296.328 75.8053 296.499 76.488L297.907 83.272L297.267 84.296L281.779 87.752H281.395C281.224 87.752 281.011 87.7947 280.755 87.88C280.584 87.88 280.414 87.88 280.243 87.88L276.019 84.936C276.019 84.8507 276.062 84.808 276.147 84.808C276.232 84.7227 276.318 84.5947 276.403 84.424C276.488 84.168 276.574 83.784 276.659 83.272C276.744 82.6747 276.787 81.864 276.787 80.84C276.787 79.9867 276.787 79.3893 276.787 79.048C276.872 78.7067 276.83 78.152 276.659 77.384C276.488 76.36 276.488 74.056 276.659 70.472C276.744 66.888 276.147 65.096 274.867 65.096C275.038 64.1573 275.123 63.048 275.123 61.768C275.208 60.488 275.294 59.2933 275.379 58.184C275.464 57.5013 275.507 56.8613 275.507 56.264C275.507 55.5813 275.507 54.8987 275.507 54.216C275.592 54.1307 275.635 54.0453 275.635 53.96C275.72 53.8747 275.806 53.7893 275.891 53.704L276.019 53.576C276.446 52.8933 276.659 52.3813 276.659 52.04C276.659 51.6133 276.83 50.6747 277.171 49.224V43.72C278.792 43.976 279.134 42.6107 278.195 39.624C277.427 36.3813 277.299 34.76 277.811 34.76C278.067 33.6507 278.323 32.3707 278.579 30.92C278.75 29.7253 278.92 28.4453 279.091 27.08C279.262 25.6293 279.432 24.1787 279.603 22.728L279.091 22.344C278.494 22.856 277.768 23.0267 276.915 22.856C276.147 22.6853 275.422 22.5573 274.739 22.472C272.776 22.728 271.112 22.9413 269.747 23.112C268.382 23.2827 267.272 23.5813 266.419 24.008C265.907 24.1787 265.438 24.3067 265.011 24.392C264.584 24.4773 264.371 25.0747 264.371 26.184L257.075 27.72L254.771 26.056C254.43 25.2027 254.131 24.392 253.875 23.624C253.619 22.7707 253.448 21.7467 253.363 20.552L254.899 16.84C256.094 16.6693 257.032 16.584 257.715 16.584C258.483 16.584 259.038 16.6267 259.379 16.712C259.806 16.712 260.104 16.7547 260.275 16.84C260.446 16.9253 260.616 16.968 260.787 16.968C261.726 16.5413 262.707 16.1573 263.731 15.816C264.755 15.3893 265.95 15.0053 267.315 14.664C268.766 14.3227 270.43 14.024 272.307 13.768C274.27 13.4267 276.616 13.0853 279.347 12.744L290.995 12.232L292.275 13.256C292.702 13.512 293.171 13.768 293.683 14.024C294.195 14.1947 294.707 14.28 295.219 14.28C295.816 14.3653 296.371 14.152 296.883 13.64C297.054 13.4693 297.224 13.2133 297.395 12.872C298.078 12.7013 299.187 12.7013 300.723 12.872C302.344 12.9573 304.776 13.256 308.019 13.768C313.651 14.7067 317.363 15.2187 319.155 15.304L319.923 16.584V20.808L317.491 22.728ZM382.269 83.144L364.349 85.32L360.637 79.304C360.637 78.1947 359.784 78.2373 358.077 79.432C357.65 79.688 357.224 80.1147 356.797 80.712C356.37 81.3093 355.944 81.9067 355.517 82.504C355.261 82.8453 355.005 83.1867 354.749 83.528C354.493 83.8693 354.237 84.2533 353.981 84.68C351.336 86.6427 348.605 87.9227 345.789 88.52C343.058 89.1173 340.712 88.7333 338.749 87.368C337.298 87.1973 336.317 86.856 335.805 86.344C335.549 86.1733 335.208 85.8747 334.781 85.448L326.589 84.936L323.133 83.272L319.933 75.208L320.573 72.52L317.757 61.256L323.133 52.296L327.485 48.328C329.106 47.4747 330.984 46.792 333.117 46.28C335.25 45.768 337.384 45.4267 339.517 45.256C341.65 45 343.698 44.9573 345.661 45.128C347.624 45.2133 349.245 45.4693 350.525 45.896C350.525 47.2613 350.952 48.1573 351.805 48.584C352.658 49.0107 354.322 49.48 356.797 49.992C357.65 48.5413 358.077 46.792 358.077 44.744C358.077 42.6107 357.693 40.392 356.925 38.088L354.877 31.56C354.194 31.304 353.128 30.8773 351.677 30.28C350.312 29.5973 349.16 29.0427 348.221 28.616L342.717 29.512L337.085 30.664L335.805 28.616L337.213 25.288L338.109 23.24L339.901 22.856L345.789 21.832L351.037 23.624L356.797 22.728L367.933 26.056L372.669 33.224L374.333 53.576L373.949 59.976L376.765 74.952L378.429 75.72H382.397L384.061 80.2L382.269 83.144ZM335.293 62.28C334.866 64.4987 334.866 66.376 335.293 67.912C335.805 69.448 336.616 70.728 337.725 71.752L339.645 75.72C341.181 76.232 342.632 76.616 343.997 76.872C345.362 77.128 346.77 77.1707 348.221 77C349.757 76.744 351.336 76.2747 352.957 75.592C354.664 74.824 356.626 73.7147 358.845 72.264L359.101 65.736L356.797 54.344C355.602 53.9173 354.536 53.704 353.597 53.704C352.744 53.704 351.89 53.7893 351.037 53.96C350.013 54.216 348.818 54.4293 347.453 54.6C346.088 54.7707 344.68 54.984 343.229 55.24C341.864 55.4107 340.584 55.6667 339.389 56.008C338.28 56.264 337.469 56.648 336.957 57.16L335.293 62.28ZM444.806 35.656V40.392L444.038 41.16L432.39 38.728L422.15 43.464L419.334 49.992C416.774 55.112 414.897 59.7627 413.702 63.944C412.507 68.04 412.635 71.5387 414.086 74.44L417.798 80.84L431.238 78.536L436.87 76.616H447.366L448.646 81.096L434.31 85.192L414.086 89.416L407.942 85.448H397.446L393.478 81.096C392.454 76.232 392.582 71.3253 393.862 66.376C395.142 61.3413 397.062 56.2213 399.622 51.016L413.958 40.648L417.542 34.504L421.638 32.968L424.454 30.664L443.91 33.096L444.806 35.656ZM494.454 60.872C493.43 61.0427 492.534 61.384 491.766 61.896C490.998 62.408 490.315 62.9627 489.718 63.56C489.206 64.072 488.737 64.584 488.31 65.096C487.883 65.5227 487.499 65.7787 487.158 65.864C486.731 65.608 486.177 65.48 485.494 65.48C484.811 65.3947 484.129 65.5227 483.446 65.864C482.849 66.12 482.379 66.632 482.038 67.4C481.782 68.0827 481.867 69.064 482.294 70.344L482.806 79.432L482.294 84.168V86.6L479.862 90.056L475.638 91.08H467.19C466.251 91.2507 465.483 91.1227 464.886 90.696C464.374 90.184 464.118 88.9467 464.118 86.984V86.728L466.166 79.048L466.55 70.344L467.446 53.96L468.982 42.952C468.897 42.5253 468.811 41.7147 468.726 40.52C468.641 39.3253 468.513 37.832 468.342 36.04C468.257 34.1627 468.171 32.6267 468.086 31.432C468.086 30.2373 468.086 29.2987 468.086 28.616C468.086 28.7867 468.385 28.5733 468.982 27.976C469.579 27.2933 470.091 26.4827 470.518 25.544C470.945 24.52 471.115 23.4107 471.03 22.216C470.945 21.0213 470.219 19.912 468.854 18.888L470.134 8.26399C470.731 7.92266 470.774 6.89866 470.262 5.19199L472.822 2.632L474.486 2.376C475.169 2.54666 475.851 2.67466 476.534 2.75999C477.302 2.75999 478.155 2.84533 479.094 3.016C479.862 3.18666 480.545 3.31466 481.142 3.39999C481.825 3.39999 482.422 3.52799 482.934 3.784L485.494 5.19199V7.62399C485.665 8.05066 485.835 8.73333 486.006 9.672C486.177 10.5253 486.305 11.592 486.39 12.872C486.39 13.4693 486.347 14.152 486.262 14.92C486.177 15.688 486.091 16.4133 486.006 17.096C486.006 17.7787 485.963 18.376 485.878 18.888C485.793 19.4 485.75 19.6987 485.75 19.784C485.75 19.8693 485.707 20.0827 485.622 20.424C485.622 20.7653 485.579 21.1067 485.494 21.448C485.409 21.7893 485.323 22.088 485.238 22.344C485.153 22.6 485.067 22.6853 484.982 22.6C484.897 22.6 484.769 22.856 484.598 23.368C484.513 23.88 484.385 24.52 484.214 25.288C484.129 25.9707 484.043 26.696 483.958 27.464C483.873 28.232 483.873 28.8293 483.958 29.256C484.043 29.6827 484.129 30.3653 484.214 31.304C484.299 32.1573 484.385 33.352 484.47 34.888C484.47 35.656 484.47 36.3387 484.47 36.936C484.555 37.5333 484.598 38.0453 484.598 38.472C484.598 38.984 484.641 39.368 484.726 39.624L483.958 48.968L481.654 50.888C480.459 53.2773 479.905 54.9413 479.99 55.88C480.161 56.8187 480.673 57.5867 481.526 58.184C483.062 57.928 484.129 57.7147 484.726 57.544C485.323 57.3733 485.793 57.0747 486.134 56.648C486.475 56.2213 486.774 55.6667 487.03 54.984C487.371 54.3013 488.054 53.32 489.078 52.04C489.078 52.2107 489.846 51.8267 491.382 50.888C492.747 50.0347 493.387 49.0107 493.302 47.816C494.411 47.304 495.222 46.8773 495.734 46.536C496.246 46.1947 496.843 45.8533 497.526 45.512C499.147 44.3173 500.214 43.1653 500.726 42.056C501.323 40.9467 501.793 40.4347 502.134 40.52C502.39 40.52 502.561 40.5627 502.646 40.648C502.817 40.7333 503.073 40.8613 503.414 41.032C503.841 40.776 504.523 40.3493 505.462 39.752C506.486 39.0693 507.681 38.1307 509.046 36.936C509.899 36.2533 510.667 35.6133 511.35 35.016C512.118 34.4187 512.843 33.8213 513.526 33.224L516.726 33.608L518.902 38.216L517.494 39.112C516.982 39.624 516.47 40.264 515.958 41.032C515.446 41.8 514.934 42.568 514.422 43.336C513.995 44.0187 513.526 44.6587 513.014 45.256C512.502 45.768 511.99 46.0667 511.478 46.152C509.345 47.8587 506.955 49.4373 504.31 50.888C501.75 52.3387 499.233 53.9173 496.758 55.624C496.331 55.88 495.947 56.1787 495.606 56.52C495.265 56.776 494.923 57.032 494.582 57.288C494.411 57.4587 494.326 57.7573 494.326 58.184C494.411 58.5253 494.497 58.9093 494.582 59.336C494.667 59.6773 494.71 60.0187 494.71 60.36C494.71 60.7013 494.625 60.872 494.454 60.872ZM524.406 88.776L515.446 93.256L512.758 92.616L509.686 88.52C509.345 88.0933 509.046 87.6667 508.79 87.24C508.534 86.728 508.193 86.1733 507.766 85.576C506.827 84.04 505.889 82.76 504.95 81.736C504.097 80.6267 503.499 79.7307 503.158 79.048C503.073 78.8773 502.902 78.5787 502.646 78.152C502.39 77.7253 501.921 77.3413 501.238 77L500.726 70.216C501.067 70.0453 500.769 69.6187 499.83 68.936C498.977 68.168 498.081 67.2293 497.142 66.12C495.691 63.7307 495.307 62.0667 495.99 61.128C497.185 61.2987 498.507 61.4267 499.958 61.512C501.494 61.5973 503.158 61.5547 504.95 61.384C505.547 61.2987 506.059 61.256 506.486 61.256C506.913 61.256 507.339 61.256 507.766 61.256L509.558 63.048C509.558 63.1333 509.515 63.176 509.43 63.176C509.43 63.176 509.43 63.2187 509.43 63.304C509.601 63.56 509.857 63.9867 510.198 64.584C510.625 65.1813 511.179 66.0347 511.862 67.144C512.886 67.9973 513.611 68.7653 514.038 69.448C514.465 70.1307 514.763 70.7707 514.934 71.368C515.105 71.9653 515.233 72.5627 515.318 73.16C515.403 73.7573 515.659 74.44 516.086 75.208C516.342 75.464 516.726 75.8907 517.238 76.488C517.75 77 518.39 77.64 519.158 78.408C519.926 79.176 520.481 79.7733 520.822 80.2C521.163 80.6267 521.377 80.8827 521.462 80.968C521.633 81.1387 521.633 81.3093 521.462 81.48C521.377 81.6507 521.377 81.736 521.462 81.736L524.662 86.472L524.406 88.776ZM592.741 22.728C591.888 22.728 590.906 22.728 589.797 22.728C588.688 22.6427 587.408 22.5573 585.957 22.472C583.482 22.3867 581.221 22.344 579.173 22.344C577.125 22.2587 575.76 22.1307 575.077 21.96V31.688C573.882 32.6267 573.029 34.504 572.517 37.32C571.834 45.768 571.408 52.552 571.237 57.672C571.066 62.7067 571.024 66.632 571.109 69.448C571.194 71.1547 571.28 72.6053 571.365 73.8C571.45 74.9093 571.578 75.8053 571.749 76.488L573.157 83.272L572.517 84.296L557.029 87.752H556.645C556.474 87.752 556.261 87.7947 556.005 87.88C555.834 87.88 555.664 87.88 555.493 87.88L551.269 84.936C551.269 84.8507 551.312 84.808 551.397 84.808C551.482 84.7227 551.568 84.5947 551.653 84.424C551.738 84.168 551.824 83.784 551.909 83.272C551.994 82.6747 552.037 81.864 552.037 80.84C552.037 79.9867 552.037 79.3893 552.037 79.048C552.122 78.7067 552.08 78.152 551.909 77.384C551.738 76.36 551.738 74.056 551.909 70.472C551.994 66.888 551.397 65.096 550.117 65.096C550.288 64.1573 550.373 63.048 550.373 61.768C550.458 60.488 550.544 59.2933 550.629 58.184C550.714 57.5013 550.757 56.8613 550.757 56.264C550.757 55.5813 550.757 54.8987 550.757 54.216C550.842 54.1307 550.885 54.0453 550.885 53.96C550.97 53.8747 551.056 53.7893 551.141 53.704L551.269 53.576C551.696 52.8933 551.909 52.3813 551.909 52.04C551.909 51.6133 552.08 50.6747 552.421 49.224V43.72C554.042 43.976 554.384 42.6107 553.445 39.624C552.677 36.3813 552.549 34.76 553.061 34.76C553.317 33.6507 553.573 32.3707 553.829 30.92C554 29.7253 554.17 28.4453 554.341 27.08C554.512 25.6293 554.682 24.1787 554.853 22.728L554.341 22.344C553.744 22.856 553.018 23.0267 552.165 22.856C551.397 22.6853 550.672 22.5573 549.989 22.472C548.026 22.728 546.362 22.9413 544.997 23.112C543.632 23.2827 542.522 23.5813 541.669 24.008C541.157 24.1787 540.688 24.3067 540.261 24.392C539.834 24.4773 539.621 25.0747 539.621 26.184L532.325 27.72L530.021 26.056C529.68 25.2027 529.381 24.392 529.125 23.624C528.869 22.7707 528.698 21.7467 528.613 20.552L530.149 16.84C531.344 16.6693 532.282 16.584 532.965 16.584C533.733 16.584 534.288 16.6267 534.629 16.712C535.056 16.712 535.354 16.7547 535.525 16.84C535.696 16.9253 535.866 16.968 536.037 16.968C536.976 16.5413 537.957 16.1573 538.981 15.816C540.005 15.3893 541.2 15.0053 542.565 14.664C544.016 14.3227 545.68 14.024 547.557 13.768C549.52 13.4267 551.866 13.0853 554.597 12.744L566.245 12.232L567.525 13.256C567.952 13.512 568.421 13.768 568.933 14.024C569.445 14.1947 569.957 14.28 570.469 14.28C571.066 14.3653 571.621 14.152 572.133 13.64C572.304 13.4693 572.474 13.2133 572.645 12.872C573.328 12.7013 574.437 12.7013 575.973 12.872C577.594 12.9573 580.026 13.256 583.269 13.768C588.901 14.7067 592.613 15.2187 594.405 15.304L595.173 16.584V20.808L592.741 22.728ZM646.2 45C646.456 46.4507 646.584 47.7307 646.584 48.84C646.584 49.864 646.541 50.888 646.456 51.912C646.456 52.8507 646.499 53.7893 646.584 54.728C646.755 55.5813 647.096 56.52 647.608 57.544C647.437 57.8853 647.011 58.568 646.328 59.592C645.731 60.5307 645.304 61.512 645.048 62.536C644.877 63.4747 644.749 64.2 644.664 64.712C644.579 65.224 644.493 65.5653 644.408 65.736C644.664 65.9067 644.877 66.248 645.048 66.76C645.133 67.1867 645.048 67.7413 644.792 68.424C644.536 69.0213 644.024 69.8747 643.256 70.984C641.72 73.032 640.867 74.7813 640.696 76.232C640.525 77.5973 640.184 78.664 639.672 79.432C639.501 79.6027 638.947 79.8587 638.008 80.2C637.155 80.5413 636.131 80.968 634.936 81.48C633.741 81.9067 632.547 82.4187 631.352 83.016C630.157 83.6133 629.219 84.2107 628.536 84.808C627.085 85.064 625.805 85.4053 624.696 85.832C623.587 86.2587 622.221 86.5573 620.6 86.728C619.064 87.0693 617.485 87.496 615.864 88.008C614.243 88.4347 613.347 88.648 613.176 88.648C609.165 88.648 606.776 88.776 606.008 89.032C605.325 89.288 604.515 89.416 603.576 89.416L591.928 85.192L586.552 77.384C586.552 75.336 586.467 73.6293 586.296 72.264C586.211 70.8133 586.083 69.576 585.912 68.552C585.741 67.4427 585.613 66.4187 585.528 65.48C585.443 64.5413 585.443 63.4747 585.528 62.28C585.784 62.024 586.168 61.4267 586.68 60.488C587.192 59.464 587.704 58.312 588.216 57.032C588.813 55.752 589.368 54.4293 589.88 53.064C590.477 51.6987 590.904 50.5467 591.16 49.608C591.843 47.6453 592.355 45.9387 592.696 44.488C593.037 42.952 593.293 41.5867 593.464 40.392C594.147 39.9653 594.701 39.496 595.128 38.984C595.555 38.472 595.981 38.0453 596.408 37.704C599.907 35.656 602.936 33.992 605.496 32.712C608.056 31.3467 610.445 30.4933 612.664 30.152L616.504 29.896C616.931 29.9813 617.315 30.0667 617.656 30.152C617.997 30.2373 618.339 30.3227 618.68 30.408C619.192 30.5787 619.661 30.7067 620.088 30.792C620.515 30.792 620.771 30.792 620.856 30.792L623.416 34.76C623.416 35.528 623.245 36.168 622.904 36.68C622.563 37.1067 622.904 37.4053 623.928 37.576C625.037 37.832 625.635 38.0027 625.72 38.088V38.216C627.085 38.216 628.493 37.9173 629.944 37.32C631.395 36.6373 632.845 36.296 634.296 36.296C634.637 36.296 635.235 36.4667 636.088 36.808C636.941 37.064 637.837 37.4053 638.776 37.832C639.715 38.2587 640.568 38.6853 641.336 39.112C642.189 39.4533 642.787 39.7093 643.128 39.88C642.957 41.16 643 42.056 643.256 42.568C643.512 43.08 643.853 43.464 644.28 43.72C644.707 43.8907 645.091 44.0613 645.432 44.232C645.859 44.3173 646.115 44.5733 646.2 45ZM623.288 77C624.568 76.1467 625.805 73.416 627 68.808C627.683 66.3333 628.237 64.4987 628.664 63.304C629.176 62.024 629.432 60.8293 629.432 59.72C629.432 57.8427 628.792 55.624 627.512 53.064C626.829 51.6987 626.317 50.5467 625.976 49.608C625.635 48.6693 625.379 47.7307 625.208 46.792C624.525 46.4507 624.141 45.9387 624.056 45.256C624.056 44.488 623.715 43.72 623.032 42.952C622.179 42.2693 621.667 42.0133 621.496 42.184C621.325 42.3547 621.155 42.44 620.984 42.44H619.832C619.149 42.44 618.211 42.568 617.016 42.824C615.907 43.08 615.011 43.6773 614.328 44.616C613.304 45.7253 612.408 46.6213 611.64 47.304C610.957 47.9013 610.573 48.2853 610.488 48.456C609.635 50.0773 608.867 51.4853 608.184 52.68C607.501 53.7893 606.947 54.6853 606.52 55.368L605.368 58.056C604.856 59.336 604.643 61.0427 604.728 63.176C604.899 63.5173 605.069 64.2853 605.24 65.48C605.411 66.5893 604.899 67.784 603.704 69.064C603.448 69.32 603.192 69.832 602.936 70.6C602.68 71.2827 602.509 72.0933 602.424 73.032C602.339 73.9707 602.424 74.9093 602.68 75.848C603.021 76.7867 603.661 77.5973 604.6 78.28C605.795 79.1333 607.032 79.9867 608.312 80.84C609.592 81.608 610.403 81.992 610.744 81.992H612.152C612.664 81.992 613.133 82.12 613.56 82.376L623.288 77ZM713.032 59.72C711.155 59.464 709.491 59.8053 708.04 60.744C707.528 61 707.016 61.256 706.504 61.512C705.992 61.6827 705.48 61.8533 704.968 62.024C704.712 62.1093 704.456 62.1947 704.2 62.28C703.944 62.3653 703.731 62.4507 703.56 62.536L685.768 67.912C680.819 66.8027 679.069 67.6133 680.52 70.344C680.776 70.9413 681.117 71.8373 681.544 73.032C681.971 74.2267 682.312 75.08 682.568 75.592C683.677 76.0187 684.829 76.7013 686.024 77.64C687.219 78.4933 688.328 79.0053 689.352 79.176L691.656 78.92C692.253 78.92 693.064 78.8773 694.088 78.792C695.197 78.7067 696.264 78.5787 697.288 78.408C698.397 78.152 699.379 77.8533 700.232 77.512C701.171 77.1707 701.811 76.744 702.152 76.232C702.408 75.8053 702.792 75.5067 703.304 75.336C703.816 75.08 704.328 74.8667 704.84 74.696C705.181 74.6107 705.48 74.568 705.736 74.568C706.077 74.4827 706.461 74.3973 706.888 74.312L708.296 79.304L706.76 82.248C706.675 82.4187 706.376 82.632 705.864 82.888C705.437 83.0587 704.925 83.3147 704.328 83.656C703.731 83.9973 703.133 84.3387 702.536 84.68C702.024 84.936 701.64 85.192 701.384 85.448C701.213 85.6187 700.744 85.704 699.976 85.704C699.293 85.704 698.483 85.704 697.544 85.704C696.691 85.704 695.795 85.7467 694.856 85.832C693.917 85.9173 693.192 86.088 692.68 86.344C691.485 86.9413 690.547 87.3253 689.864 87.496C689.267 87.6667 688.755 87.7947 688.328 87.88C687.901 88.0507 687.603 88.008 687.432 87.752C687.261 87.6667 686.963 87.624 686.536 87.624C686.28 87.624 685.939 87.624 685.512 87.624C685.085 87.624 684.659 87.5813 684.232 87.496C683.123 87.4107 682.227 87.368 681.544 87.368C680.861 87.2827 680.435 87.24 680.264 87.24L667.976 81.224C667.72 78.664 666.525 77.384 664.392 77.384C663.965 77.384 663.453 77.0427 662.856 76.36C662.259 75.592 661.747 74.7813 661.32 73.928C660.979 73.5013 660.68 73.032 660.424 72.52C660.168 71.9227 659.912 71.2827 659.656 70.6L658.504 56.008L659.656 47.432C659.741 47.0907 659.997 46.664 660.424 46.152C660.936 45.2987 661.576 44.0187 662.344 42.312C662.685 41.544 663.368 40.8187 664.392 40.136C665.416 39.4533 666.483 38.856 667.592 38.344C668.787 37.7467 669.896 37.2347 670.92 36.808C672.029 36.296 672.84 35.8693 673.352 35.528C674.376 35.6987 675.869 34.5893 677.832 32.2C678.344 31.6027 678.984 31.1333 679.752 30.792C680.52 30.3653 681.288 30.024 682.056 29.768C682.483 29.5973 682.952 29.4693 683.464 29.384C683.976 29.2987 684.445 29.2133 684.872 29.128L699.848 31.048C700.701 31.2187 701.597 31.4747 702.536 31.816C703.219 32.1573 703.901 32.584 704.584 33.096C705.267 33.608 705.821 34.2053 706.248 34.888C706.845 36.3387 707.699 37.5333 708.808 38.472C709.917 39.3253 710.813 39.9227 711.496 40.264L716.232 48.712L715.208 57.032L713.032 59.72ZM694.088 55.368L695.112 54.6C695.368 54.4293 695.624 54.2587 695.88 54.088C696.136 53.832 696.349 53.6613 696.52 53.576C697.117 53.4053 697.8 53.064 698.568 52.552C699.336 52.04 699.635 51.4 699.464 50.632C699.464 49.1813 698.696 47.56 697.16 45.768C695.624 43.976 693.619 42.696 691.144 41.928C689.949 41.5013 688.797 41.288 687.688 41.288C686.579 41.288 685.512 41.3733 684.488 41.544C683.549 41.6293 682.653 41.7573 681.8 41.928C681.032 42.0987 680.392 42.184 679.88 42.184C677.917 41.7573 676.808 42.6533 676.552 44.872C675.272 46.8347 674.632 49.0107 674.632 51.4C674.717 53.704 674.973 55.9227 675.4 58.056C675.4 59.2507 675.613 60.232 676.04 61C676.552 61.768 677.149 62.2373 677.832 62.408C678.515 62.5787 679.197 62.4507 679.88 62.024C680.648 61.512 681.288 60.616 681.8 59.336L694.088 55.368Z" fill="#FFDD85"/>
</svg>
